<svg width="1440" height="58" viewBox="0 0 1440 58" fill="none" xmlns="http://www.w3.org/2000/svg">
<g clip-path="url(#clip0_2_666)">
<path d="M33.2967 59.2158L33.285 59.2601L33.2777 59.3035L33.2777 59.3036L33.2776 59.3042L33.2775 59.3047L33.2775 59.305L33.2775 59.3051L33.2775 59.3052L33.2774 59.3053L33.2771 59.3071L33.2749 59.3189L33.2692 59.3399L15.8181 124.137C15.7657 124.306 15.703 124.509 15.6529 124.72C12.3771 135.782 0.971264 144.717 -10.1768 145H-22.3558C-28.0024 145 -32.4194 142.76 -35.0901 139.215C-37.764 135.666 -38.7722 130.694 -37.3664 125.075L-37.3564 125.034L-37.3549 125.028L-19.8138 59.86C-19.8138 59.86 -19.8138 59.8599 -19.8138 59.8599C-16.7155 48.354 -4.77514 39 6.72768 39H18.3553C24.0419 39 28.4854 41.2799 31.1515 44.8807C33.8211 48.4861 34.7933 53.5312 33.2967 59.2158ZM-37.3365 124.832C-37.3365 124.831 -37.3364 124.834 -37.3365 124.842V124.832Z" stroke="#D596FF" stroke-width="2"/>
<path d="M87.2967 59.2158L87.285 59.2601L87.2777 59.3035L87.2777 59.3036L87.2776 59.3042L87.2775 59.3047L87.2775 59.305L87.2775 59.3051L87.2775 59.3052L87.2774 59.3053L87.2771 59.3071L87.2749 59.3189L87.2692 59.3399L69.8181 124.137C69.7657 124.306 69.703 124.509 69.6529 124.72C66.3771 135.782 54.9713 144.717 43.8232 145H31.6442C25.9976 145 21.5806 142.76 18.9099 139.215C16.236 135.666 15.2278 130.694 16.6336 125.075L16.6436 125.034L16.6451 125.028L34.1862 59.86C34.1862 59.86 34.1862 59.8599 34.1862 59.8599C37.2845 48.354 49.2249 39 60.7277 39H72.3553C78.0419 39 82.4854 41.2799 85.1515 44.8807C87.8211 48.4861 88.7933 53.5312 87.2967 59.2158ZM16.6635 124.832C16.6635 124.831 16.6636 124.834 16.6635 124.842V124.832Z" stroke="#00EA8A" stroke-width="2"/>
<path d="M141.297 59.2158L141.285 59.2601L141.278 59.3035L141.278 59.3036L141.278 59.3042L141.278 59.3047L141.277 59.305L141.277 59.3051L141.277 59.3052L141.277 59.3053L141.277 59.3071L141.275 59.3189L141.269 59.3399L123.818 124.137C123.766 124.306 123.703 124.509 123.653 124.72C120.377 135.782 108.971 144.717 97.8232 145H85.6442C79.9976 145 75.5806 142.76 72.9099 139.215C70.236 135.666 69.2278 130.694 70.6336 125.075L70.6436 125.034L70.6451 125.028L88.1862 59.86C88.1862 59.86 88.1862 59.8599 88.1862 59.8599C91.2845 48.354 103.225 39 114.728 39H126.355C132.042 39 136.485 41.2799 139.152 44.8807C141.821 48.4861 142.793 53.5312 141.297 59.2158ZM70.6635 124.832C70.6635 124.831 70.6636 124.834 70.6635 124.842V124.832Z" stroke="#00D1FF" stroke-width="2"/>
<path d="M195.297 59.2158L195.285 59.2601L195.278 59.3035L195.278 59.3036L195.278 59.3042L195.278 59.3047L195.277 59.305L195.277 59.3051L195.277 59.3052L195.277 59.3053L195.277 59.3071L195.275 59.3189L195.269 59.3399L177.818 124.137C177.766 124.306 177.703 124.509 177.653 124.72C174.377 135.782 162.971 144.717 151.823 145H139.644C133.998 145 129.581 142.76 126.91 139.215C124.236 135.666 123.228 130.694 124.634 125.075L124.644 125.034L124.645 125.028L142.186 59.86C142.186 59.86 142.186 59.8599 142.186 59.8599C145.285 48.354 157.225 39 168.728 39H180.355C186.042 39 190.485 41.2799 193.152 44.8807C195.821 48.4861 196.793 53.5312 195.297 59.2158ZM124.663 124.832C124.663 124.831 124.664 124.834 124.663 124.842V124.832Z" stroke="#1549FF" stroke-width="2"/>
<path d="M249.297 59.2158L249.285 59.2601L249.278 59.3035L249.278 59.3036L249.278 59.3042L249.278 59.3047L249.277 59.305L249.277 59.3051L249.277 59.3052L249.277 59.3053L249.277 59.3071L249.275 59.3189L249.269 59.3399L231.818 124.137C231.766 124.306 231.703 124.509 231.653 124.72C228.377 135.782 216.971 144.717 205.823 145H193.644C187.998 145 183.581 142.76 180.91 139.215C178.236 135.666 177.228 130.694 178.634 125.075L178.644 125.034L178.645 125.028L196.186 59.86C196.186 59.86 196.186 59.8599 196.186 59.8599C199.285 48.354 211.225 39 222.728 39H234.355C240.042 39 244.485 41.2799 247.152 44.8807C249.821 48.4861 250.793 53.5312 249.297 59.2158ZM178.663 124.832C178.663 124.831 178.664 124.834 178.663 124.842V124.832Z" stroke="#D596FF" stroke-width="2"/>
<path d="M303.297 59.2158L303.285 59.2601L303.278 59.3035L303.278 59.3036L303.278 59.3042L303.278 59.3047L303.277 59.305L303.277 59.3051L303.277 59.3052L303.277 59.3053L303.277 59.3071L303.275 59.3189L303.269 59.3399L285.818 124.137C285.766 124.306 285.703 124.509 285.653 124.72C282.377 135.782 270.971 144.717 259.823 145H247.644C241.998 145 237.581 142.76 234.91 139.215C232.236 135.666 231.228 130.694 232.634 125.075L232.644 125.034L232.645 125.028L250.186 59.86C250.186 59.86 250.186 59.8599 250.186 59.8599C253.285 48.354 265.225 39 276.728 39H288.355C294.042 39 298.485 41.2799 301.152 44.8807C303.821 48.4861 304.793 53.5312 303.297 59.2158ZM232.663 124.832C232.663 124.831 232.664 124.834 232.663 124.842V124.832Z" stroke="#00EA8A" stroke-width="2"/>
<path d="M357.297 59.2158L357.285 59.2601L357.278 59.3035L357.278 59.3036L357.278 59.3042L357.278 59.3047L357.277 59.305L357.277 59.3051L357.277 59.3052L357.277 59.3053L357.277 59.3071L357.275 59.3189L357.269 59.3399L339.818 124.137C339.766 124.306 339.703 124.509 339.653 124.72C336.377 135.782 324.971 144.717 313.823 145H301.644C295.998 145 291.581 142.76 288.91 139.215C286.236 135.666 285.228 130.694 286.634 125.075L286.644 125.034L286.645 125.028L304.186 59.86C304.186 59.86 304.186 59.8599 304.186 59.8599C307.285 48.354 319.225 39 330.728 39H342.355C348.042 39 352.485 41.2799 355.152 44.8807C357.821 48.4861 358.793 53.5312 357.297 59.2158ZM286.663 124.832C286.663 124.831 286.664 124.834 286.663 124.842V124.832Z" stroke="#00D1FF" stroke-width="2"/>
<path d="M411.297 59.2158L411.285 59.2601L411.278 59.3035L411.278 59.3036L411.278 59.3042L411.278 59.3047L411.277 59.305L411.277 59.3051L411.277 59.3052L411.277 59.3053L411.277 59.3071L411.275 59.3189L411.269 59.3399L393.818 124.137C393.766 124.306 393.703 124.509 393.653 124.72C390.377 135.782 378.971 144.717 367.823 145H355.644C349.998 145 345.581 142.76 342.91 139.215C340.236 135.666 339.228 130.694 340.634 125.075L340.644 125.034L340.645 125.028L358.186 59.86C358.186 59.86 358.186 59.8599 358.186 59.8599C361.285 48.354 373.225 39 384.728 39H396.355C402.042 39 406.485 41.2799 409.152 44.8807C411.821 48.4861 412.793 53.5312 411.297 59.2158ZM340.663 124.832C340.663 124.831 340.664 124.834 340.663 124.842V124.832Z" stroke="#1549FF" stroke-width="2"/>
<path d="M465.297 59.2158L465.285 59.2601L465.278 59.3035L465.278 59.3036L465.278 59.3042L465.278 59.3047L465.277 59.305L465.277 59.3051L465.277 59.3052L465.277 59.3053L465.277 59.3071L465.275 59.3189L465.269 59.3399L447.818 124.137C447.766 124.306 447.703 124.509 447.653 124.72C444.377 135.782 432.971 144.717 421.823 145H409.644C403.998 145 399.581 142.76 396.91 139.215C394.236 135.666 393.228 130.694 394.634 125.075L394.644 125.034L394.645 125.028L412.186 59.86C412.186 59.86 412.186 59.8599 412.186 59.8599C415.285 48.354 427.225 39 438.728 39H450.355C456.042 39 460.485 41.2799 463.152 44.8807C465.821 48.4861 466.793 53.5312 465.297 59.2158ZM394.663 124.832C394.663 124.831 394.664 124.834 394.663 124.842V124.832Z" stroke="#D596FF" stroke-width="2"/>
<path d="M519.297 59.2158L519.285 59.2601L519.278 59.3035L519.278 59.3036L519.278 59.3042L519.278 59.3047L519.277 59.305L519.277 59.3051L519.277 59.3052L519.277 59.3053L519.277 59.3071L519.275 59.3189L519.269 59.3399L501.818 124.137C501.766 124.306 501.703 124.509 501.653 124.72C498.377 135.782 486.971 144.717 475.823 145H463.644C457.998 145 453.581 142.76 450.91 139.215C448.236 135.666 447.228 130.694 448.634 125.075L448.644 125.034L448.645 125.028L466.186 59.86C466.186 59.86 466.186 59.8599 466.186 59.8599C469.285 48.354 481.225 39 492.728 39H504.355C510.042 39 514.485 41.2799 517.152 44.8807C519.821 48.4861 520.793 53.5312 519.297 59.2158ZM448.663 124.832C448.663 124.831 448.664 124.834 448.663 124.842V124.832Z" stroke="#00EA8A" stroke-width="2"/>
<path d="M573.297 59.2158L573.285 59.2601L573.278 59.3035L573.278 59.3036L573.278 59.3042L573.278 59.3047L573.277 59.305L573.277 59.3051L573.277 59.3052L573.277 59.3053L573.277 59.3071L573.275 59.3189L573.269 59.3399L555.818 124.137C555.766 124.306 555.703 124.509 555.653 124.72C552.377 135.782 540.971 144.717 529.823 145H517.644C511.998 145 507.581 142.76 504.91 139.215C502.236 135.666 501.228 130.694 502.634 125.075L502.644 125.034L502.645 125.028L520.186 59.86C520.186 59.86 520.186 59.8599 520.186 59.8599C523.285 48.354 535.225 39 546.728 39H558.355C564.042 39 568.485 41.2799 571.152 44.8807C573.821 48.4861 574.793 53.5312 573.297 59.2158ZM502.663 124.832C502.663 124.831 502.664 124.834 502.663 124.842V124.832Z" stroke="#00D1FF" stroke-width="2"/>
<path d="M627.297 59.2158L627.285 59.2601L627.278 59.3035L627.278 59.3036L627.278 59.3042L627.278 59.3047L627.277 59.305L627.277 59.3051L627.277 59.3052L627.277 59.3053L627.277 59.3071L627.275 59.3189L627.269 59.3399L609.818 124.137C609.766 124.306 609.703 124.509 609.653 124.72C606.377 135.782 594.971 144.717 583.823 145H571.644C565.998 145 561.581 142.76 558.91 139.215C556.236 135.666 555.228 130.694 556.634 125.075L556.644 125.034L556.645 125.028L574.186 59.86C574.186 59.86 574.186 59.8599 574.186 59.8599C577.285 48.354 589.225 39 600.728 39H612.355C618.042 39 622.485 41.2799 625.152 44.8807C627.821 48.4861 628.793 53.5312 627.297 59.2158ZM556.663 124.832C556.663 124.831 556.664 124.834 556.663 124.842V124.832Z" stroke="#1549FF" stroke-width="2"/>
<path d="M681.297 59.2158L681.285 59.2601L681.278 59.3035L681.278 59.3036L681.278 59.3042L681.278 59.3047L681.277 59.305L681.277 59.3051L681.277 59.3052L681.277 59.3053L681.277 59.3071L681.275 59.3189L681.269 59.3399L663.818 124.137C663.766 124.306 663.703 124.509 663.653 124.72C660.377 135.782 648.971 144.717 637.823 145H625.644C619.998 145 615.581 142.76 612.91 139.215C610.236 135.666 609.228 130.694 610.634 125.075L610.644 125.034L610.645 125.028L628.186 59.86C628.186 59.86 628.186 59.8599 628.186 59.8599C631.285 48.354 643.225 39 654.728 39H666.355C672.042 39 676.485 41.2799 679.152 44.8807C681.821 48.4861 682.793 53.5312 681.297 59.2158ZM610.663 124.832C610.663 124.831 610.664 124.834 610.663 124.842V124.832Z" stroke="#D596FF" stroke-width="2"/>
<path d="M735.297 59.2158L735.285 59.2601L735.278 59.3035L735.278 59.3036L735.278 59.3042L735.278 59.3047L735.277 59.305L735.277 59.3051L735.277 59.3052L735.277 59.3053L735.277 59.3071L735.275 59.3189L735.269 59.3399L717.818 124.137C717.766 124.306 717.703 124.509 717.653 124.72C714.377 135.782 702.971 144.717 691.823 145H679.644C673.998 145 669.581 142.76 666.91 139.215C664.236 135.666 663.228 130.694 664.634 125.075L664.644 125.034L664.645 125.028L682.186 59.86C682.186 59.86 682.186 59.8599 682.186 59.8599C685.285 48.354 697.225 39 708.728 39H720.355C726.042 39 730.485 41.2799 733.152 44.8807C735.821 48.4861 736.793 53.5312 735.297 59.2158ZM664.663 124.832C664.663 124.831 664.664 124.834 664.663 124.842V124.832Z" stroke="#00EA8A" stroke-width="2"/>
<path d="M789.297 59.2158L789.285 59.2601L789.278 59.3035L789.278 59.3036L789.278 59.3042L789.278 59.3047L789.277 59.305L789.277 59.3051L789.277 59.3052L789.277 59.3053L789.277 59.3071L789.275 59.3189L789.269 59.3399L771.818 124.137C771.766 124.306 771.703 124.509 771.653 124.72C768.377 135.782 756.971 144.717 745.823 145H733.644C727.998 145 723.581 142.76 720.91 139.215C718.236 135.666 717.228 130.694 718.634 125.075L718.644 125.034L718.645 125.028L736.186 59.86C736.186 59.86 736.186 59.8599 736.186 59.8599C739.285 48.354 751.225 39 762.728 39H774.355C780.042 39 784.485 41.2799 787.152 44.8807C789.821 48.4861 790.793 53.5312 789.297 59.2158ZM718.663 124.832C718.663 124.831 718.664 124.834 718.663 124.842V124.832Z" stroke="#00D1FF" stroke-width="2"/>
<path d="M843.297 59.2158L843.285 59.2601L843.278 59.3035L843.278 59.3036L843.278 59.3042L843.278 59.3047L843.277 59.305L843.277 59.3051L843.277 59.3052L843.277 59.3053L843.277 59.3071L843.275 59.3189L843.269 59.3399L825.818 124.137C825.766 124.306 825.703 124.509 825.653 124.72C822.377 135.782 810.971 144.717 799.823 145H787.644C781.998 145 777.581 142.76 774.91 139.215C772.236 135.666 771.228 130.694 772.634 125.075L772.644 125.034L772.645 125.028L790.186 59.86C790.186 59.86 790.186 59.8599 790.186 59.8599C793.285 48.354 805.225 39 816.728 39H828.355C834.042 39 838.485 41.2799 841.152 44.8807C843.821 48.4861 844.793 53.5312 843.297 59.2158ZM772.663 124.832C772.663 124.831 772.664 124.834 772.663 124.842V124.832Z" stroke="#1549FF" stroke-width="2"/>
<path d="M897.297 59.2158L897.285 59.2601L897.278 59.3035L897.278 59.3036L897.278 59.3042L897.278 59.3047L897.277 59.305L897.277 59.3051L897.277 59.3052L897.277 59.3053L897.277 59.3071L897.275 59.3189L897.269 59.3399L879.818 124.137C879.766 124.306 879.703 124.509 879.653 124.72C876.377 135.782 864.971 144.717 853.823 145H841.644C835.998 145 831.581 142.76 828.91 139.215C826.236 135.666 825.228 130.694 826.634 125.075L826.644 125.034L826.645 125.028L844.186 59.86C844.186 59.86 844.186 59.8599 844.186 59.8599C847.285 48.354 859.225 39 870.728 39H882.355C888.042 39 892.485 41.2799 895.152 44.8807C897.821 48.4861 898.793 53.5312 897.297 59.2158ZM826.663 124.832C826.663 124.831 826.664 124.834 826.663 124.842V124.832Z" stroke="#D596FF" stroke-width="2"/>
<path d="M951.297 59.2158L951.285 59.2601L951.278 59.3035L951.278 59.3036L951.278 59.3042L951.278 59.3047L951.277 59.305L951.277 59.3051L951.277 59.3052L951.277 59.3053L951.277 59.3071L951.275 59.3189L951.269 59.3399L933.818 124.137C933.766 124.306 933.703 124.509 933.653 124.72C930.377 135.782 918.971 144.717 907.823 145H895.644C889.998 145 885.581 142.76 882.91 139.215C880.236 135.666 879.228 130.694 880.634 125.075L880.644 125.034L880.645 125.028L898.186 59.86C898.186 59.86 898.186 59.8599 898.186 59.8599C901.285 48.354 913.225 39 924.728 39H936.355C942.042 39 946.485 41.2799 949.152 44.8807C951.821 48.4861 952.793 53.5312 951.297 59.2158ZM880.663 124.832C880.663 124.831 880.664 124.834 880.663 124.842V124.832Z" stroke="#00EA8A" stroke-width="2"/>
<path d="M1005.3 59.2158L1005.29 59.2601L1005.28 59.3035L1005.28 59.3036L1005.28 59.3042L1005.28 59.3047L1005.28 59.305L1005.28 59.3051L1005.28 59.3052L1005.28 59.3053L1005.28 59.3071L1005.27 59.3189L1005.27 59.3399L987.818 124.137C987.766 124.306 987.703 124.509 987.653 124.72C984.377 135.782 972.971 144.717 961.823 145H949.644C943.998 145 939.581 142.76 936.91 139.215C934.236 135.666 933.228 130.694 934.634 125.075L934.644 125.034L934.645 125.028L952.186 59.86C952.186 59.86 952.186 59.8599 952.186 59.8599C955.285 48.354 967.225 39 978.728 39H990.355C996.042 39 1000.49 41.2799 1003.15 44.8807C1005.82 48.4861 1006.79 53.5312 1005.3 59.2158ZM934.663 124.832C934.663 124.831 934.664 124.834 934.663 124.842V124.832Z" stroke="#00D1FF" stroke-width="2"/>
<path d="M1059.3 59.2158L1059.29 59.2601L1059.28 59.3035L1059.28 59.3036L1059.28 59.3042L1059.28 59.3047L1059.28 59.305L1059.28 59.3051L1059.28 59.3052L1059.28 59.3053L1059.28 59.3071L1059.27 59.3189L1059.27 59.3399L1041.82 124.137C1041.77 124.306 1041.7 124.509 1041.65 124.72C1038.38 135.782 1026.97 144.717 1015.82 145H1003.64C997.998 145 993.581 142.76 990.91 139.215C988.236 135.666 987.228 130.694 988.634 125.075L988.644 125.034L988.645 125.028L1006.19 59.86C1006.19 59.86 1006.19 59.8599 1006.19 59.8599C1009.28 48.354 1021.22 39 1032.73 39H1044.36C1050.04 39 1054.49 41.2799 1057.15 44.8807C1059.82 48.4861 1060.79 53.5312 1059.3 59.2158ZM988.663 124.832C988.663 124.831 988.664 124.834 988.663 124.842V124.832Z" stroke="#1549FF" stroke-width="2"/>
<path d="M1113.3 59.2158L1113.29 59.2601L1113.28 59.3035L1113.28 59.3036L1113.28 59.3042L1113.28 59.3047L1113.28 59.305L1113.28 59.3051L1113.28 59.3052L1113.28 59.3053L1113.28 59.3071L1113.27 59.3189L1113.27 59.3399L1095.82 124.137C1095.77 124.306 1095.7 124.509 1095.65 124.72C1092.38 135.782 1080.97 144.717 1069.82 145H1057.64C1052 145 1047.58 142.76 1044.91 139.215C1042.24 135.666 1041.23 130.694 1042.63 125.075L1042.64 125.034L1042.65 125.028L1060.19 59.86C1060.19 59.86 1060.19 59.8599 1060.19 59.8599C1063.28 48.354 1075.22 39 1086.73 39H1098.36C1104.04 39 1108.49 41.2799 1111.15 44.8807C1113.82 48.4861 1114.79 53.5312 1113.3 59.2158ZM1042.66 124.832C1042.66 124.831 1042.66 124.834 1042.66 124.842V124.832Z" stroke="#D596FF" stroke-width="2"/>
<path d="M1167.3 59.2158L1167.29 59.2601L1167.28 59.3035L1167.28 59.3036L1167.28 59.3042L1167.28 59.3047L1167.28 59.305L1167.28 59.3051L1167.28 59.3052L1167.28 59.3053L1167.28 59.3071L1167.27 59.3189L1167.27 59.3399L1149.82 124.137C1149.77 124.306 1149.7 124.509 1149.65 124.72C1146.38 135.782 1134.97 144.717 1123.82 145H1111.64C1106 145 1101.58 142.76 1098.91 139.215C1096.24 135.666 1095.23 130.694 1096.63 125.075L1096.64 125.034L1096.65 125.028L1114.19 59.86C1114.19 59.86 1114.19 59.8599 1114.19 59.8599C1117.28 48.354 1129.22 39 1140.73 39H1152.36C1158.04 39 1162.49 41.2799 1165.15 44.8807C1167.82 48.4861 1168.79 53.5312 1167.3 59.2158ZM1096.66 124.832C1096.66 124.831 1096.66 124.834 1096.66 124.842V124.832Z" stroke="#00EA8A" stroke-width="2"/>
<path d="M1221.3 59.2158L1221.29 59.2601L1221.28 59.3035L1221.28 59.3036L1221.28 59.3042L1221.28 59.3047L1221.28 59.305L1221.28 59.3051L1221.28 59.3052L1221.28 59.3053L1221.28 59.3071L1221.27 59.3189L1221.27 59.3399L1203.82 124.137C1203.77 124.306 1203.7 124.509 1203.65 124.72C1200.38 135.782 1188.97 144.717 1177.82 145H1165.64C1160 145 1155.58 142.76 1152.91 139.215C1150.24 135.666 1149.23 130.694 1150.63 125.075L1150.64 125.034L1150.65 125.028L1168.19 59.86C1168.19 59.86 1168.19 59.8599 1168.19 59.8599C1171.28 48.354 1183.22 39 1194.73 39H1206.36C1212.04 39 1216.49 41.2799 1219.15 44.8807C1221.82 48.4861 1222.79 53.5312 1221.3 59.2158ZM1150.66 124.832C1150.66 124.831 1150.66 124.834 1150.66 124.842V124.832Z" stroke="#00D1FF" stroke-width="2"/>
<path d="M1275.3 59.2158L1275.29 59.2601L1275.28 59.3035L1275.28 59.3036L1275.28 59.3042L1275.28 59.3047L1275.28 59.305L1275.28 59.3051L1275.28 59.3052L1275.28 59.3053L1275.28 59.3071L1275.27 59.3189L1275.27 59.3399L1257.82 124.137C1257.77 124.306 1257.7 124.509 1257.65 124.72C1254.38 135.782 1242.97 144.717 1231.82 145H1219.64C1214 145 1209.58 142.76 1206.91 139.215C1204.24 135.666 1203.23 130.694 1204.63 125.075L1204.64 125.034L1204.65 125.028L1222.19 59.86C1222.19 59.86 1222.19 59.8599 1222.19 59.8599C1225.28 48.354 1237.22 39 1248.73 39H1260.36C1266.04 39 1270.49 41.2799 1273.15 44.8807C1275.82 48.4861 1276.79 53.5312 1275.3 59.2158ZM1204.66 124.832C1204.66 124.831 1204.66 124.834 1204.66 124.842V124.832Z" stroke="#1549FF" stroke-width="2"/>
<path d="M1329.3 59.2158L1329.29 59.2601L1329.28 59.3035L1329.28 59.3036L1329.28 59.3042L1329.28 59.3047L1329.28 59.305L1329.28 59.3051L1329.28 59.3052L1329.28 59.3053L1329.28 59.3071L1329.27 59.3189L1329.27 59.3399L1311.82 124.137C1311.77 124.306 1311.7 124.509 1311.65 124.72C1308.38 135.782 1296.97 144.717 1285.82 145H1273.64C1268 145 1263.58 142.76 1260.91 139.215C1258.24 135.666 1257.23 130.694 1258.63 125.075L1258.64 125.034L1258.65 125.028L1276.19 59.86C1276.19 59.86 1276.19 59.8599 1276.19 59.8599C1279.28 48.354 1291.22 39 1302.73 39H1314.36C1320.04 39 1324.49 41.2799 1327.15 44.8807C1329.82 48.4861 1330.79 53.5312 1329.3 59.2158ZM1258.66 124.832C1258.66 124.831 1258.66 124.834 1258.66 124.842V124.832Z" stroke="#D596FF" stroke-width="2"/>
<path d="M1383.3 59.2158L1383.29 59.2601L1383.28 59.3035L1383.28 59.3036L1383.28 59.3042L1383.28 59.3047L1383.28 59.305L1383.28 59.3051L1383.28 59.3052L1383.28 59.3053L1383.28 59.3071L1383.27 59.3189L1383.27 59.3399L1365.82 124.137C1365.77 124.306 1365.7 124.509 1365.65 124.72C1362.38 135.782 1350.97 144.717 1339.82 145H1327.64C1322 145 1317.58 142.76 1314.91 139.215C1312.24 135.666 1311.23 130.694 1312.63 125.075L1312.64 125.034L1312.65 125.028L1330.19 59.86C1330.19 59.86 1330.19 59.8599 1330.19 59.8599C1333.28 48.354 1345.22 39 1356.73 39H1368.36C1374.04 39 1378.49 41.2799 1381.15 44.8807C1383.82 48.4861 1384.79 53.5312 1383.3 59.2158ZM1312.66 124.832C1312.66 124.831 1312.66 124.834 1312.66 124.842V124.832Z" stroke="#00EA8A" stroke-width="2"/>
<path d="M1437.3 59.2158L1437.29 59.2601L1437.28 59.3035L1437.28 59.3036L1437.28 59.3042L1437.28 59.3047L1437.28 59.305L1437.28 59.3051L1437.28 59.3052L1437.28 59.3053L1437.28 59.3071L1437.27 59.3189L1437.27 59.3399L1419.82 124.137C1419.77 124.306 1419.7 124.509 1419.65 124.72C1416.38 135.782 1404.97 144.717 1393.82 145H1381.64C1376 145 1371.58 142.76 1368.91 139.215C1366.24 135.666 1365.23 130.694 1366.63 125.075L1366.64 125.034L1366.65 125.028L1384.19 59.86C1384.19 59.86 1384.19 59.8599 1384.19 59.8599C1387.28 48.354 1399.22 39 1410.73 39H1422.36C1428.04 39 1432.49 41.2799 1435.15 44.8807C1437.82 48.4861 1438.79 53.5312 1437.3 59.2158ZM1366.66 124.832C1366.66 124.831 1366.66 124.834 1366.66 124.842V124.832Z" stroke="#00D1FF" stroke-width="2"/>
<path d="M1491.3 59.2158L1491.29 59.2601L1491.28 59.3035L1491.28 59.3036L1491.28 59.3042L1491.28 59.3047L1491.28 59.305L1491.28 59.3051L1491.28 59.3052L1491.28 59.3053L1491.28 59.3071L1491.27 59.3189L1491.27 59.3399L1473.82 124.137C1473.77 124.306 1473.7 124.509 1473.65 124.72C1470.38 135.782 1458.97 144.717 1447.82 145H1435.64C1430 145 1425.58 142.76 1422.91 139.215C1420.24 135.666 1419.23 130.694 1420.63 125.075L1420.64 125.034L1420.65 125.028L1438.19 59.86C1438.19 59.86 1438.19 59.8599 1438.19 59.8599C1441.28 48.354 1453.22 39 1464.73 39H1476.36C1482.04 39 1486.49 41.2799 1489.15 44.8807C1491.82 48.4861 1492.79 53.5312 1491.3 59.2158ZM1420.66 124.832C1420.66 124.831 1420.66 124.834 1420.66 124.842V124.832Z" stroke="#1549FF" stroke-width="2"/>
</g>
<defs>
<clipPath id="clip0_2_666">
<rect width="1440" height="58" fill="white"/>
</clipPath>
</defs>
</svg>
