<svg width="19" height="18" viewBox="0 0 19 18" fill="none" xmlns="http://www.w3.org/2000/svg">
<path d="M18.6667 5.5V14.75C18.6667 15.612 18.3243 16.4386 17.7148 17.0481C17.1054 17.6576 16.2787 18 15.4167 18H3.91675C3.05479 18 2.22814 17.6576 1.61865 17.0481C1.00916 16.4386 0.666748 15.612 0.666748 14.75V5.5H18.6667ZM4.91675 12C4.58523 12 4.26729 12.1317 4.03286 12.3661C3.79844 12.6005 3.66675 12.9185 3.66675 13.25C3.66675 13.5815 3.79844 13.8995 4.03286 14.1339C4.26729 14.3683 4.58523 14.5 4.91675 14.5C5.24827 14.5 5.56621 14.3683 5.80063 14.1339C6.03505 13.8995 6.16675 13.5815 6.16675 13.25C6.16675 12.9185 6.03505 12.6005 5.80063 12.3661C5.56621 12.1317 5.24827 12 4.91675 12ZM9.66675 12C9.33523 12 9.01729 12.1317 8.78286 12.3661C8.54844 12.6005 8.41675 12.9185 8.41675 13.25C8.41675 13.5815 8.54844 13.8995 8.78286 14.1339C9.01729 14.3683 9.33523 14.5 9.66675 14.5C9.99827 14.5 10.3162 14.3683 10.5506 14.1339C10.7851 13.8995 10.9167 13.5815 10.9167 13.25C10.9167 12.9185 10.7851 12.6005 10.5506 12.3661C10.3162 12.1317 9.99827 12 9.66675 12ZM4.91675 7.5C4.58523 7.5 4.26729 7.6317 4.03286 7.86612C3.79844 8.10054 3.66675 8.41848 3.66675 8.75C3.66675 9.08152 3.79844 9.39946 4.03286 9.63388C4.26729 9.8683 4.58523 10 4.91675 10C5.24827 10 5.56621 9.8683 5.80063 9.63388C6.03505 9.39946 6.16675 9.08152 6.16675 8.75C6.16675 8.41848 6.03505 8.10054 5.80063 7.86612C5.56621 7.6317 5.24827 7.5 4.91675 7.5ZM9.66675 7.5C9.33523 7.5 9.01729 7.6317 8.78286 7.86612C8.54844 8.10054 8.41675 8.41848 8.41675 8.75C8.41675 9.08152 8.54844 9.39946 8.78286 9.63388C9.01729 9.8683 9.33523 10 9.66675 10C9.99827 10 10.3162 9.8683 10.5506 9.63388C10.7851 9.39946 10.9167 9.08152 10.9167 8.75C10.9167 8.41848 10.7851 8.10054 10.5506 7.86612C10.3162 7.6317 9.99827 7.5 9.66675 7.5ZM14.4167 7.5C14.0852 7.5 13.7673 7.6317 13.5329 7.86612C13.2984 8.10054 13.1667 8.41848 13.1667 8.75C13.1667 9.08152 13.2984 9.39946 13.5329 9.63388C13.7673 9.8683 14.0852 10 14.4167 10C14.7483 10 15.0662 9.8683 15.3006 9.63388C15.5351 9.39946 15.6667 9.08152 15.6667 8.75C15.6667 8.41848 15.5351 8.10054 15.3006 7.86612C15.0662 7.6317 14.7483 7.5 14.4167 7.5ZM15.4167 0C16.2787 0 17.1054 0.34241 17.7148 0.951903C18.3243 1.5614 18.6667 2.38805 18.6667 3.25V4H0.666748V3.25C0.666748 2.38805 1.00916 1.5614 1.61865 0.951903C2.22814 0.34241 3.05479 0 3.91675 0H15.4167Z" fill="#10182C"/>
</svg>
