<svg width="24" height="24" viewBox="0 0 24 24" fill="none" xmlns="http://www.w3.org/2000/svg">
<path d="M12 2C6.477 2 2 6.477 2 12C2 17.523 6.477 22 12 22C17.523 22 22 17.523 22 12C22 6.477 17.523 2 12 2ZM14.492 9.36C14.4628 9.55679 14.3567 9.73393 14.1969 9.85246C14.0371 9.97098 13.8368 10.0212 13.64 9.992C13.4432 9.96283 13.2661 9.85667 13.1475 9.69689C13.029 9.53711 12.9788 9.33679 13.008 9.14C13.17 8.05 14.131 7.25 15.25 7.25C16.369 7.25 17.33 8.05 17.492 9.14C17.5212 9.33679 17.471 9.53711 17.3525 9.69689C17.2339 9.85667 17.0568 9.96283 16.86 9.992C16.6632 10.0212 16.4629 9.97098 16.3031 9.85246C16.1433 9.73393 16.0372 9.55679 16.008 9.36C15.96 9.037 15.658 8.75 15.25 8.75C14.842 8.75 14.54 9.037 14.492 9.36ZM12 18C8.858 18 6.763 15.637 6.5 12.75H17.5C17.237 15.637 15.142 18 12 18ZM8.75 8.75C8.342 8.75 8.04 9.037 7.992 9.36C7.96283 9.55679 7.85667 9.73393 7.69689 9.85246C7.53711 9.97098 7.33679 10.0212 7.14 9.992C6.94321 9.96283 6.76607 9.85667 6.64754 9.69689C6.52902 9.53711 6.47883 9.33679 6.508 9.14C6.67 8.05 7.631 7.25 8.75 7.25C9.869 7.25 10.83 8.05 10.992 9.14C11.0064 9.23744 11.0016 9.33677 10.9776 9.43232C10.9537 9.52788 10.9111 9.61778 10.8525 9.69689C10.7938 9.77601 10.7201 9.84279 10.6356 9.89342C10.5511 9.94406 10.4574 9.97755 10.36 9.992C10.2626 10.0064 10.1632 10.0016 10.0677 9.97761C9.97212 9.95367 9.88222 9.91114 9.80311 9.85246C9.72399 9.79377 9.65721 9.72007 9.60658 9.63558C9.55594 9.55108 9.52245 9.45744 9.508 9.36C9.46 9.037 9.158 8.75 8.75 8.75Z" fill="#00D1FF"/>
</svg>
