<svg width="19" height="18" viewBox="0 0 19 18" fill="none" xmlns="http://www.w3.org/2000/svg">
<path d="M7.33342 2.03901V2.81701L10.3604 4.01901H12.4794L11.2294 1.21101C10.3354 -0.797993 7.33342 -0.158993 7.33342 2.03901ZM10.0534 4.97401L5.83342 3.29701V1.75701C5.83342 0.0190067 3.57442 -0.656993 2.62042 0.796007L0.710418 3.70401C0.524742 3.98705 0.403714 4.30752 0.355944 4.64264C0.308173 4.97776 0.334833 5.31929 0.434028 5.64294C0.533222 5.96659 0.702514 6.2644 0.929863 6.5152C1.15721 6.766 1.43703 6.96362 1.74942 7.09401L5.25242 8.55801L3.20742 10.456C1.58042 11.967 3.20342 14.621 5.28942 13.861L12.0504 11.397L15.5134 12.843C15.8228 12.9721 16.1592 13.0228 16.4928 12.9906C16.8264 12.9584 17.147 12.8444 17.426 12.6586C17.7049 12.4728 17.9337 12.221 18.092 11.9256C18.2503 11.6301 18.3333 11.3002 18.3334 10.965V9.73501C18.3335 9.11574 18.2117 8.50251 17.9748 7.93035C17.7379 7.35818 17.3906 6.83829 16.9528 6.40035C16.5149 5.96242 15.9951 5.61502 15.423 5.37801C14.8509 5.141 14.2377 5.01901 13.6184 5.01901H10.2924C10.211 5.0192 10.1292 5.00392 10.0534 4.97401ZM0.333418 17.25C0.333418 17.0511 0.412436 16.8603 0.553088 16.7197C0.69374 16.579 0.884506 16.5 1.08342 16.5H17.5834C17.7823 16.5 17.9731 16.579 18.1137 16.7197C18.2544 16.8603 18.3334 17.0511 18.3334 17.25C18.3334 17.4489 18.2544 17.6397 18.1137 17.7803C17.9731 17.921 17.7823 18 17.5834 18H1.08342C0.884506 18 0.69374 17.921 0.553088 17.7803C0.412436 17.6397 0.333418 17.4489 0.333418 17.25Z" fill="#10182C"/>
</svg>
