<svg width="1748" height="20" viewBox="0 0 1748 20" fill="none" xmlns="http://www.w3.org/2000/svg">
<g clip-path="url(#clip0_286_2311)">
<path d="M72.2967 21.2158L72.285 21.2601L72.2777 21.3035L72.2777 21.3036L72.2776 21.3042L72.2775 21.3047L72.2775 21.3049L72.2775 21.3051L72.2775 21.3052L72.2774 21.3052L72.2771 21.3071L72.2749 21.3189L72.2692 21.3399L54.8181 86.1367C54.7657 86.3061 54.703 86.5095 54.6528 86.7196C51.3771 97.7816 39.9712 106.717 28.8232 107H16.6442C10.9976 107 6.58062 104.76 3.90991 101.215C1.236 97.666 0.227769 92.6944 1.63358 87.0747L1.64357 87.0343L1.64512 87.0286L19.1862 21.86C19.1862 21.86 19.1862 21.8599 19.1862 21.8599C22.2845 10.354 34.2249 1 45.7277 1H57.3553C63.0419 1 67.4854 3.27994 70.1515 6.88067C72.8211 10.4861 73.7933 15.5312 72.2967 21.2158ZM1.66348 86.832C1.66348 86.8306 1.66359 86.8344 1.66348 86.8421V86.832Z" stroke="#D596FF" stroke-width="2"/>
<path d="M126.297 21.2158L126.285 21.2601L126.278 21.3035L126.278 21.3036L126.278 21.3042L126.278 21.3047L126.277 21.3049L126.277 21.3051L126.277 21.3052L126.277 21.3052L126.277 21.3071L126.275 21.3189L126.269 21.3399L108.818 86.1367C108.766 86.3061 108.703 86.5095 108.653 86.7196C105.377 97.7816 93.9712 106.717 82.8232 107H70.6442C64.9976 107 60.5806 104.76 57.9099 101.215C55.236 97.666 54.2278 92.6944 55.6336 87.0747L55.6436 87.0343L55.6451 87.0286L73.1862 21.86C73.1862 21.86 73.1862 21.8599 73.1862 21.8599C76.2845 10.354 88.2249 1 99.7277 1H111.355C117.042 1 121.485 3.27994 124.152 6.88067C126.821 10.4861 127.793 15.5312 126.297 21.2158ZM55.6635 86.832C55.6635 86.8306 55.6636 86.8344 55.6635 86.8421V86.832Z" stroke="#00EA8A" stroke-width="2"/>
<path d="M180.297 21.2158L180.285 21.2601L180.278 21.3035L180.278 21.3036L180.278 21.3042L180.278 21.3047L180.277 21.3049L180.277 21.3051L180.277 21.3052L180.277 21.3052L180.277 21.3071L180.275 21.3189L180.269 21.3399L162.818 86.1367C162.766 86.3061 162.703 86.5095 162.653 86.7196C159.377 97.7816 147.971 106.717 136.823 107H124.644C118.998 107 114.581 104.76 111.91 101.215C109.236 97.666 108.228 92.6944 109.634 87.0747L109.644 87.0343L109.645 87.0286L127.186 21.86C127.186 21.86 127.186 21.8599 127.186 21.8599C130.285 10.354 142.225 1 153.728 1H165.355C171.042 1 175.485 3.27994 178.152 6.88067C180.821 10.4861 181.793 15.5312 180.297 21.2158ZM109.663 86.832C109.663 86.8306 109.664 86.8344 109.663 86.8421V86.832Z" stroke="#00D1FF" stroke-width="2"/>
<path d="M234.297 21.2158L234.285 21.2601L234.278 21.3035L234.278 21.3036L234.278 21.3042L234.278 21.3047L234.277 21.3049L234.277 21.3051L234.277 21.3052L234.277 21.3052L234.277 21.3071L234.275 21.3189L234.269 21.3399L216.818 86.1367C216.766 86.3061 216.703 86.5095 216.653 86.7196C213.377 97.7816 201.971 106.717 190.823 107H178.644C172.998 107 168.581 104.76 165.91 101.215C163.236 97.666 162.228 92.6944 163.634 87.0747L163.644 87.0343L163.645 87.0286L181.186 21.86C181.186 21.86 181.186 21.8599 181.186 21.8599C184.285 10.354 196.225 1 207.728 1H219.355C225.042 1 229.485 3.27994 232.152 6.88067C234.821 10.4861 235.793 15.5312 234.297 21.2158ZM163.663 86.832C163.663 86.8306 163.664 86.8344 163.663 86.8421V86.832Z" stroke="#1549FF" stroke-width="2"/>
<path d="M288.297 21.2158L288.285 21.2601L288.278 21.3035L288.278 21.3036L288.278 21.3042L288.278 21.3047L288.277 21.3049L288.277 21.3051L288.277 21.3052L288.277 21.3052L288.277 21.3071L288.275 21.3189L288.269 21.3399L270.818 86.1367C270.766 86.3061 270.703 86.5095 270.653 86.7196C267.377 97.7816 255.971 106.717 244.823 107H232.644C226.998 107 222.581 104.76 219.91 101.215C217.236 97.666 216.228 92.6944 217.634 87.0747L217.644 87.0343L217.645 87.0286L235.186 21.86C235.186 21.86 235.186 21.8599 235.186 21.8599C238.285 10.354 250.225 1 261.728 1H273.355C279.042 1 283.485 3.27994 286.152 6.88067C288.821 10.4861 289.793 15.5312 288.297 21.2158ZM217.663 86.832C217.663 86.8306 217.664 86.8344 217.663 86.8421V86.832Z" stroke="#D596FF" stroke-width="2"/>
<path d="M342.297 21.2158L342.285 21.2601L342.278 21.3035L342.278 21.3036L342.278 21.3042L342.278 21.3047L342.277 21.3049L342.277 21.3051L342.277 21.3052L342.277 21.3052L342.277 21.3071L342.275 21.3189L342.269 21.3399L324.818 86.1367C324.766 86.3061 324.703 86.5095 324.653 86.7196C321.377 97.7816 309.971 106.717 298.823 107H286.644C280.998 107 276.581 104.76 273.91 101.215C271.236 97.666 270.228 92.6944 271.634 87.0747L271.644 87.0343L271.645 87.0286L289.186 21.86C289.186 21.86 289.186 21.8599 289.186 21.8599C292.285 10.354 304.225 1 315.728 1H327.355C333.042 1 337.485 3.27994 340.152 6.88067C342.821 10.4861 343.793 15.5312 342.297 21.2158ZM271.663 86.832C271.663 86.8306 271.664 86.8344 271.663 86.8421V86.832Z" stroke="#00EA8A" stroke-width="2"/>
<path d="M396.297 21.2158L396.285 21.2601L396.278 21.3035L396.278 21.3036L396.278 21.3042L396.278 21.3047L396.277 21.3049L396.277 21.3051L396.277 21.3052L396.277 21.3052L396.277 21.3071L396.275 21.3189L396.269 21.3399L378.818 86.1367C378.766 86.3061 378.703 86.5095 378.653 86.7196C375.377 97.7816 363.971 106.717 352.823 107H340.644C334.998 107 330.581 104.76 327.91 101.215C325.236 97.666 324.228 92.6944 325.634 87.0747L325.644 87.0343L325.645 87.0286L343.186 21.86C343.186 21.86 343.186 21.8599 343.186 21.8599C346.285 10.354 358.225 1 369.728 1H381.355C387.042 1 391.485 3.27994 394.152 6.88067C396.821 10.4861 397.793 15.5312 396.297 21.2158ZM325.663 86.832C325.663 86.8306 325.664 86.8344 325.663 86.8421V86.832Z" stroke="#00D1FF" stroke-width="2"/>
<path d="M450.297 21.2158L450.285 21.2601L450.278 21.3035L450.278 21.3036L450.278 21.3042L450.278 21.3047L450.277 21.3049L450.277 21.3051L450.277 21.3052L450.277 21.3052L450.277 21.3071L450.275 21.3189L450.269 21.3399L432.818 86.1367C432.766 86.3061 432.703 86.5095 432.653 86.7196C429.377 97.7816 417.971 106.717 406.823 107H394.644C388.998 107 384.581 104.76 381.91 101.215C379.236 97.666 378.228 92.6944 379.634 87.0747L379.644 87.0343L379.645 87.0286L397.186 21.86C397.186 21.86 397.186 21.8599 397.186 21.8599C400.285 10.354 412.225 1 423.728 1H435.355C441.042 1 445.485 3.27994 448.152 6.88067C450.821 10.4861 451.793 15.5312 450.297 21.2158ZM379.663 86.832C379.663 86.8306 379.664 86.8344 379.663 86.8421V86.832Z" stroke="#1549FF" stroke-width="2"/>
<path d="M504.297 21.2158L504.285 21.2601L504.278 21.3035L504.278 21.3036L504.278 21.3042L504.278 21.3047L504.277 21.3049L504.277 21.3051L504.277 21.3052L504.277 21.3052L504.277 21.3071L504.275 21.3189L504.269 21.3399L486.818 86.1367C486.766 86.3061 486.703 86.5095 486.653 86.7196C483.377 97.7816 471.971 106.717 460.823 107H448.644C442.998 107 438.581 104.76 435.91 101.215C433.236 97.666 432.228 92.6944 433.634 87.0747L433.644 87.0343L433.645 87.0286L451.186 21.86C451.186 21.86 451.186 21.8599 451.186 21.8599C454.285 10.354 466.225 1 477.728 1H489.355C495.042 1 499.485 3.27994 502.152 6.88067C504.821 10.4861 505.793 15.5312 504.297 21.2158ZM433.663 86.832C433.663 86.8306 433.664 86.8344 433.663 86.8421V86.832Z" stroke="#D596FF" stroke-width="2"/>
<path d="M558.297 21.2158L558.285 21.2601L558.278 21.3035L558.278 21.3036L558.278 21.3042L558.278 21.3047L558.277 21.3049L558.277 21.3051L558.277 21.3052L558.277 21.3052L558.277 21.3071L558.275 21.3189L558.269 21.3399L540.818 86.1367C540.766 86.3061 540.703 86.5095 540.653 86.7196C537.377 97.7816 525.971 106.717 514.823 107H502.644C496.998 107 492.581 104.76 489.91 101.215C487.236 97.666 486.228 92.6944 487.634 87.0747L487.644 87.0343L487.645 87.0286L505.186 21.86C505.186 21.86 505.186 21.8599 505.186 21.8599C508.285 10.354 520.225 1 531.728 1H543.355C549.042 1 553.485 3.27994 556.152 6.88067C558.821 10.4861 559.793 15.5312 558.297 21.2158ZM487.663 86.832C487.663 86.8306 487.664 86.8344 487.663 86.8421V86.832Z" stroke="#00EA8A" stroke-width="2"/>
<path d="M612.297 21.2158L612.285 21.2601L612.278 21.3035L612.278 21.3036L612.278 21.3042L612.278 21.3047L612.277 21.3049L612.277 21.3051L612.277 21.3052L612.277 21.3052L612.277 21.3071L612.275 21.3189L612.269 21.3399L594.818 86.1367C594.766 86.3061 594.703 86.5095 594.653 86.7196C591.377 97.7816 579.971 106.717 568.823 107H556.644C550.998 107 546.581 104.76 543.91 101.215C541.236 97.666 540.228 92.6944 541.634 87.0747L541.644 87.0343L541.645 87.0286L559.186 21.86C559.186 21.86 559.186 21.8599 559.186 21.8599C562.285 10.354 574.225 1 585.728 1H597.355C603.042 1 607.485 3.27994 610.152 6.88067C612.821 10.4861 613.793 15.5312 612.297 21.2158ZM541.663 86.832C541.663 86.8306 541.664 86.8344 541.663 86.8421V86.832Z" stroke="#00D1FF" stroke-width="2"/>
<path d="M666.297 21.2158L666.285 21.2601L666.278 21.3035L666.278 21.3036L666.278 21.3042L666.278 21.3047L666.277 21.3049L666.277 21.3051L666.277 21.3052L666.277 21.3052L666.277 21.3071L666.275 21.3189L666.269 21.3399L648.818 86.1367C648.766 86.3061 648.703 86.5095 648.653 86.7196C645.377 97.7816 633.971 106.717 622.823 107H610.644C604.998 107 600.581 104.76 597.91 101.215C595.236 97.666 594.228 92.6944 595.634 87.0747L595.644 87.0343L595.645 87.0286L613.186 21.86C613.186 21.86 613.186 21.8599 613.186 21.8599C616.285 10.354 628.225 1 639.728 1H651.355C657.042 1 661.485 3.27994 664.152 6.88067C666.821 10.4861 667.793 15.5312 666.297 21.2158ZM595.663 86.832C595.663 86.8306 595.664 86.8344 595.663 86.8421V86.832Z" stroke="#1549FF" stroke-width="2"/>
<path d="M720.297 21.2158L720.285 21.2601L720.278 21.3035L720.278 21.3036L720.278 21.3042L720.278 21.3047L720.277 21.3049L720.277 21.3051L720.277 21.3052L720.277 21.3052L720.277 21.3071L720.275 21.3189L720.269 21.3399L702.818 86.1367C702.766 86.3061 702.703 86.5095 702.653 86.7196C699.377 97.7816 687.971 106.717 676.823 107H664.644C658.998 107 654.581 104.76 651.91 101.215C649.236 97.666 648.228 92.6944 649.634 87.0747L649.644 87.0343L649.645 87.0286L667.186 21.86C667.186 21.86 667.186 21.8599 667.186 21.8599C670.285 10.354 682.225 1 693.728 1H705.355C711.042 1 715.485 3.27994 718.152 6.88067C720.821 10.4861 721.793 15.5312 720.297 21.2158ZM649.663 86.832C649.663 86.8306 649.664 86.8344 649.663 86.8421V86.832Z" stroke="#D596FF" stroke-width="2"/>
<path d="M774.297 21.2158L774.285 21.2601L774.278 21.3035L774.278 21.3036L774.278 21.3042L774.278 21.3047L774.277 21.3049L774.277 21.3051L774.277 21.3052L774.277 21.3052L774.277 21.3071L774.275 21.3189L774.269 21.3399L756.818 86.1367C756.766 86.3061 756.703 86.5095 756.653 86.7196C753.377 97.7816 741.971 106.717 730.823 107H718.644C712.998 107 708.581 104.76 705.91 101.215C703.236 97.666 702.228 92.6944 703.634 87.0747L703.644 87.0343L703.645 87.0286L721.186 21.86C721.186 21.86 721.186 21.8599 721.186 21.8599C724.285 10.354 736.225 1 747.728 1H759.355C765.042 1 769.485 3.27994 772.152 6.88067C774.821 10.4861 775.793 15.5312 774.297 21.2158ZM703.663 86.832C703.663 86.8306 703.664 86.8344 703.663 86.8421V86.832Z" stroke="#00EA8A" stroke-width="2"/>
<path d="M828.297 21.2158L828.285 21.2601L828.278 21.3035L828.278 21.3036L828.278 21.3042L828.278 21.3047L828.277 21.3049L828.277 21.3051L828.277 21.3052L828.277 21.3052L828.277 21.3071L828.275 21.3189L828.269 21.3399L810.818 86.1367C810.766 86.3061 810.703 86.5095 810.653 86.7196C807.377 97.7816 795.971 106.717 784.823 107H772.644C766.998 107 762.581 104.76 759.91 101.215C757.236 97.666 756.228 92.6944 757.634 87.0747L757.644 87.0343L757.645 87.0286L775.186 21.86C775.186 21.86 775.186 21.8599 775.186 21.8599C778.285 10.354 790.225 1 801.728 1H813.355C819.042 1 823.485 3.27994 826.152 6.88067C828.821 10.4861 829.793 15.5312 828.297 21.2158ZM757.663 86.832C757.663 86.8306 757.664 86.8344 757.663 86.8421V86.832Z" stroke="#00D1FF" stroke-width="2"/>
<path d="M882.297 21.2158L882.285 21.2601L882.278 21.3035L882.278 21.3036L882.278 21.3042L882.278 21.3047L882.277 21.3049L882.277 21.3051L882.277 21.3052L882.277 21.3052L882.277 21.3071L882.275 21.3189L882.269 21.3399L864.818 86.1367C864.766 86.3061 864.703 86.5095 864.653 86.7196C861.377 97.7816 849.971 106.717 838.823 107H826.644C820.998 107 816.581 104.76 813.91 101.215C811.236 97.666 810.228 92.6944 811.634 87.0747L811.644 87.0343L811.645 87.0286L829.186 21.86C829.186 21.86 829.186 21.8599 829.186 21.8599C832.285 10.354 844.225 1 855.728 1H867.355C873.042 1 877.485 3.27994 880.152 6.88067C882.821 10.4861 883.793 15.5312 882.297 21.2158ZM811.663 86.832C811.663 86.8306 811.664 86.8344 811.663 86.8421V86.832Z" stroke="#1549FF" stroke-width="2"/>
<path d="M936.297 21.2158L936.285 21.2601L936.278 21.3035L936.278 21.3036L936.278 21.3042L936.278 21.3047L936.277 21.3049L936.277 21.3051L936.277 21.3052L936.277 21.3052L936.277 21.3071L936.275 21.3189L936.269 21.3399L918.818 86.1367C918.766 86.3061 918.703 86.5095 918.653 86.7196C915.377 97.7816 903.971 106.717 892.823 107H880.644C874.998 107 870.581 104.76 867.91 101.215C865.236 97.666 864.228 92.6944 865.634 87.0747L865.644 87.0343L865.645 87.0286L883.186 21.86C883.186 21.86 883.186 21.8599 883.186 21.8599C886.285 10.354 898.225 1 909.728 1H921.355C927.042 1 931.485 3.27994 934.152 6.88067C936.821 10.4861 937.793 15.5312 936.297 21.2158ZM865.663 86.832C865.663 86.8306 865.664 86.8344 865.663 86.8421V86.832Z" stroke="#D596FF" stroke-width="2"/>
<path d="M990.297 21.2158L990.285 21.2601L990.278 21.3035L990.278 21.3036L990.278 21.3042L990.278 21.3047L990.277 21.3049L990.277 21.3051L990.277 21.3052L990.277 21.3052L990.277 21.3071L990.275 21.3189L990.269 21.3399L972.818 86.1367C972.766 86.3061 972.703 86.5095 972.653 86.7196C969.377 97.7816 957.971 106.717 946.823 107H934.644C928.998 107 924.581 104.76 921.91 101.215C919.236 97.666 918.228 92.6944 919.634 87.0747L919.644 87.0343L919.645 87.0286L937.186 21.86C937.186 21.86 937.186 21.8599 937.186 21.8599C940.285 10.354 952.225 1 963.728 1H975.355C981.042 1 985.485 3.27994 988.152 6.88067C990.821 10.4861 991.793 15.5312 990.297 21.2158ZM919.663 86.832C919.663 86.8306 919.664 86.8344 919.663 86.8421V86.832Z" stroke="#00EA8A" stroke-width="2"/>
<path d="M1044.3 21.2158L1044.29 21.2601L1044.28 21.3035L1044.28 21.3036L1044.28 21.3042L1044.28 21.3047L1044.28 21.3049L1044.28 21.3051L1044.28 21.3052L1044.28 21.3052L1044.28 21.3071L1044.27 21.3189L1044.27 21.3399L1026.82 86.1367C1026.77 86.3061 1026.7 86.5095 1026.65 86.7196C1023.38 97.7816 1011.97 106.717 1000.82 107H988.644C982.998 107 978.581 104.76 975.91 101.215C973.236 97.666 972.228 92.6944 973.634 87.0747L973.644 87.0343L973.645 87.0286L991.186 21.86C991.186 21.86 991.186 21.8599 991.186 21.8599C994.285 10.354 1006.22 1 1017.73 1H1029.36C1035.04 1 1039.49 3.27994 1042.15 6.88067C1044.82 10.4861 1045.79 15.5312 1044.3 21.2158ZM973.663 86.832C973.663 86.8306 973.664 86.8344 973.663 86.8421V86.832Z" stroke="#00D1FF" stroke-width="2"/>
<path d="M1098.3 21.2158L1098.29 21.2601L1098.28 21.3035L1098.28 21.3036L1098.28 21.3042L1098.28 21.3047L1098.28 21.3049L1098.28 21.3051L1098.28 21.3052L1098.28 21.3052L1098.28 21.3071L1098.27 21.3189L1098.27 21.3399L1080.82 86.1367C1080.77 86.3061 1080.7 86.5095 1080.65 86.7196C1077.38 97.7816 1065.97 106.717 1054.82 107H1042.64C1037 107 1032.58 104.76 1029.91 101.215C1027.24 97.666 1026.23 92.6944 1027.63 87.0747L1027.64 87.0343L1027.65 87.0286L1045.19 21.86C1045.19 21.86 1045.19 21.8599 1045.19 21.8599C1048.28 10.354 1060.22 1 1071.73 1H1083.36C1089.04 1 1093.49 3.27994 1096.15 6.88067C1098.82 10.4861 1099.79 15.5312 1098.3 21.2158ZM1027.66 86.832C1027.66 86.8306 1027.66 86.8344 1027.66 86.8421V86.832Z" stroke="#1549FF" stroke-width="2"/>
<path d="M1152.3 21.2158L1152.29 21.2601L1152.28 21.3035L1152.28 21.3036L1152.28 21.3042L1152.28 21.3047L1152.28 21.3049L1152.28 21.3051L1152.28 21.3052L1152.28 21.3052L1152.28 21.3071L1152.27 21.3189L1152.27 21.3399L1134.82 86.1367C1134.77 86.3061 1134.7 86.5095 1134.65 86.7196C1131.38 97.7816 1119.97 106.717 1108.82 107H1096.64C1091 107 1086.58 104.76 1083.91 101.215C1081.24 97.666 1080.23 92.6944 1081.63 87.0747L1081.64 87.0343L1081.65 87.0286L1099.19 21.86C1099.19 21.86 1099.19 21.8599 1099.19 21.8599C1102.28 10.354 1114.22 1 1125.73 1H1137.36C1143.04 1 1147.49 3.27994 1150.15 6.88067C1152.82 10.4861 1153.79 15.5312 1152.3 21.2158ZM1081.66 86.832C1081.66 86.8306 1081.66 86.8344 1081.66 86.8421V86.832Z" stroke="#D596FF" stroke-width="2"/>
<path d="M1206.3 21.2158L1206.29 21.2601L1206.28 21.3035L1206.28 21.3036L1206.28 21.3042L1206.28 21.3047L1206.28 21.3049L1206.28 21.3051L1206.28 21.3052L1206.28 21.3052L1206.28 21.3071L1206.27 21.3189L1206.27 21.3399L1188.82 86.1367C1188.77 86.3061 1188.7 86.5095 1188.65 86.7196C1185.38 97.7816 1173.97 106.717 1162.82 107H1150.64C1145 107 1140.58 104.76 1137.91 101.215C1135.24 97.666 1134.23 92.6944 1135.63 87.0747L1135.64 87.0343L1135.65 87.0286L1153.19 21.86C1153.19 21.86 1153.19 21.8599 1153.19 21.8599C1156.28 10.354 1168.22 1 1179.73 1H1191.36C1197.04 1 1201.49 3.27994 1204.15 6.88067C1206.82 10.4861 1207.79 15.5312 1206.3 21.2158ZM1135.66 86.832C1135.66 86.8306 1135.66 86.8344 1135.66 86.8421V86.832Z" stroke="#00EA8A" stroke-width="2"/>
<path d="M1260.3 21.2158L1260.29 21.2601L1260.28 21.3035L1260.28 21.3036L1260.28 21.3042L1260.28 21.3047L1260.28 21.3049L1260.28 21.3051L1260.28 21.3052L1260.28 21.3052L1260.28 21.3071L1260.27 21.3189L1260.27 21.3399L1242.82 86.1367C1242.77 86.3061 1242.7 86.5095 1242.65 86.7196C1239.38 97.7816 1227.97 106.717 1216.82 107H1204.64C1199 107 1194.58 104.76 1191.91 101.215C1189.24 97.666 1188.23 92.6944 1189.63 87.0747L1189.64 87.0343L1189.65 87.0286L1207.19 21.86C1207.19 21.86 1207.19 21.8599 1207.19 21.8599C1210.28 10.354 1222.22 1 1233.73 1H1245.36C1251.04 1 1255.49 3.27994 1258.15 6.88067C1260.82 10.4861 1261.79 15.5312 1260.3 21.2158ZM1189.66 86.832C1189.66 86.8306 1189.66 86.8344 1189.66 86.8421V86.832Z" stroke="#00D1FF" stroke-width="2"/>
<path d="M1314.3 21.2158L1314.29 21.2601L1314.28 21.3035L1314.28 21.3036L1314.28 21.3042L1314.28 21.3047L1314.28 21.3049L1314.28 21.3051L1314.28 21.3052L1314.28 21.3052L1314.28 21.3071L1314.27 21.3189L1314.27 21.3399L1296.82 86.1367C1296.77 86.3061 1296.7 86.5095 1296.65 86.7196C1293.38 97.7816 1281.97 106.717 1270.82 107H1258.64C1253 107 1248.58 104.76 1245.91 101.215C1243.24 97.666 1242.23 92.6944 1243.63 87.0747L1243.64 87.0343L1243.65 87.0286L1261.19 21.86C1261.19 21.86 1261.19 21.8599 1261.19 21.8599C1264.28 10.354 1276.22 1 1287.73 1H1299.36C1305.04 1 1309.49 3.27994 1312.15 6.88067C1314.82 10.4861 1315.79 15.5312 1314.3 21.2158ZM1243.66 86.832C1243.66 86.8306 1243.66 86.8344 1243.66 86.8421V86.832Z" stroke="#1549FF" stroke-width="2"/>
<path d="M1368.3 21.2158L1368.29 21.2601L1368.28 21.3035L1368.28 21.3036L1368.28 21.3042L1368.28 21.3047L1368.28 21.3049L1368.28 21.3051L1368.28 21.3052L1368.28 21.3052L1368.28 21.3071L1368.27 21.3189L1368.27 21.3399L1350.82 86.1367C1350.77 86.3061 1350.7 86.5095 1350.65 86.7196C1347.38 97.7816 1335.97 106.717 1324.82 107H1312.64C1307 107 1302.58 104.76 1299.91 101.215C1297.24 97.666 1296.23 92.6944 1297.63 87.0747L1297.64 87.0343L1297.65 87.0286L1315.19 21.86C1315.19 21.86 1315.19 21.8599 1315.19 21.8599C1318.28 10.354 1330.22 1 1341.73 1H1353.36C1359.04 1 1363.49 3.27994 1366.15 6.88067C1368.82 10.4861 1369.79 15.5312 1368.3 21.2158ZM1297.66 86.832C1297.66 86.8306 1297.66 86.8344 1297.66 86.8421V86.832Z" stroke="#D596FF" stroke-width="2"/>
<path d="M1422.3 21.2158L1422.29 21.2601L1422.28 21.3035L1422.28 21.3036L1422.28 21.3042L1422.28 21.3047L1422.28 21.3049L1422.28 21.3051L1422.28 21.3052L1422.28 21.3052L1422.28 21.3071L1422.27 21.3189L1422.27 21.3399L1404.82 86.1367C1404.77 86.3061 1404.7 86.5095 1404.65 86.7196C1401.38 97.7816 1389.97 106.717 1378.82 107H1366.64C1361 107 1356.58 104.76 1353.91 101.215C1351.24 97.666 1350.23 92.6944 1351.63 87.0747L1351.64 87.0343L1351.65 87.0286L1369.19 21.86C1369.19 21.86 1369.19 21.8599 1369.19 21.8599C1372.28 10.354 1384.22 1 1395.73 1H1407.36C1413.04 1 1417.49 3.27994 1420.15 6.88067C1422.82 10.4861 1423.79 15.5312 1422.3 21.2158ZM1351.66 86.832C1351.66 86.8306 1351.66 86.8344 1351.66 86.8421V86.832Z" stroke="#00EA8A" stroke-width="2"/>
<path d="M1476.3 21.2158L1476.29 21.2601L1476.28 21.3035L1476.28 21.3036L1476.28 21.3042L1476.28 21.3047L1476.28 21.3049L1476.28 21.3051L1476.28 21.3052L1476.28 21.3052L1476.28 21.3071L1476.27 21.3189L1476.27 21.3399L1458.82 86.1367C1458.77 86.3061 1458.7 86.5095 1458.65 86.7196C1455.38 97.7816 1443.97 106.717 1432.82 107H1420.64C1415 107 1410.58 104.76 1407.91 101.215C1405.24 97.666 1404.23 92.6944 1405.63 87.0747L1405.64 87.0343L1405.65 87.0286L1423.19 21.86C1423.19 21.86 1423.19 21.8599 1423.19 21.8599C1426.28 10.354 1438.22 1 1449.73 1H1461.36C1467.04 1 1471.49 3.27994 1474.15 6.88067C1476.82 10.4861 1477.79 15.5312 1476.3 21.2158ZM1405.66 86.832C1405.66 86.8306 1405.66 86.8344 1405.66 86.8421V86.832Z" stroke="#00D1FF" stroke-width="2"/>
<path d="M1530.3 21.2158L1530.29 21.2601L1530.28 21.3035L1530.28 21.3036L1530.28 21.3042L1530.28 21.3047L1530.28 21.3049L1530.28 21.3051L1530.28 21.3052L1530.28 21.3052L1530.28 21.3071L1530.27 21.3189L1530.27 21.3399L1512.82 86.1367C1512.77 86.3061 1512.7 86.5095 1512.65 86.7196C1509.38 97.7816 1497.97 106.717 1486.82 107H1474.64C1469 107 1464.58 104.76 1461.91 101.215C1459.24 97.666 1458.23 92.6944 1459.63 87.0747L1459.64 87.0343L1459.65 87.0286L1477.19 21.86C1477.19 21.86 1477.19 21.8599 1477.19 21.8599C1480.28 10.354 1492.22 1 1503.73 1H1515.36C1521.04 1 1525.49 3.27994 1528.15 6.88067C1530.82 10.4861 1531.79 15.5312 1530.3 21.2158ZM1459.66 86.832C1459.66 86.8306 1459.66 86.8344 1459.66 86.8421V86.832Z" stroke="#1549FF" stroke-width="2"/>
<path d="M1584.3 21.2158L1584.29 21.2601L1584.28 21.3035L1584.28 21.3036L1584.28 21.3042L1584.28 21.3047L1584.28 21.3049L1584.28 21.3051L1584.28 21.3052L1584.28 21.3052L1584.28 21.3071L1584.27 21.3189L1584.27 21.3399L1566.82 86.1367C1566.77 86.3061 1566.7 86.5095 1566.65 86.7196C1563.38 97.7816 1551.97 106.717 1540.82 107H1528.64C1523 107 1518.58 104.76 1515.91 101.215C1513.24 97.666 1512.23 92.6944 1513.63 87.0747L1513.64 87.0343L1513.65 87.0286L1531.19 21.86C1531.19 21.86 1531.19 21.8599 1531.19 21.8599C1534.28 10.354 1546.22 1 1557.73 1H1569.36C1575.04 1 1579.49 3.27994 1582.15 6.88067C1584.82 10.4861 1585.79 15.5312 1584.3 21.2158ZM1513.66 86.832C1513.66 86.8306 1513.66 86.8344 1513.66 86.8421V86.832Z" stroke="#D596FF" stroke-width="2"/>
<path d="M1638.3 21.2158L1638.29 21.2601L1638.28 21.3035L1638.28 21.3036L1638.28 21.3042L1638.28 21.3047L1638.28 21.3049L1638.28 21.3051L1638.28 21.3052L1638.28 21.3052L1638.28 21.3071L1638.27 21.3189L1638.27 21.3399L1620.82 86.1367C1620.77 86.3061 1620.7 86.5095 1620.65 86.7196C1617.38 97.7816 1605.97 106.717 1594.82 107H1582.64C1577 107 1572.58 104.76 1569.91 101.215C1567.24 97.666 1566.23 92.6944 1567.63 87.0747L1567.64 87.0343L1567.65 87.0286L1585.19 21.86C1585.19 21.86 1585.19 21.8599 1585.19 21.8599C1588.28 10.354 1600.22 1 1611.73 1H1623.36C1629.04 1 1633.49 3.27994 1636.15 6.88067C1638.82 10.4861 1639.79 15.5312 1638.3 21.2158ZM1567.66 86.832C1567.66 86.8306 1567.66 86.8344 1567.66 86.8421V86.832Z" stroke="#00EA8A" stroke-width="2"/>
<path d="M1692.3 21.2158L1692.29 21.2601L1692.28 21.3035L1692.28 21.3036L1692.28 21.3042L1692.28 21.3047L1692.28 21.3049L1692.28 21.3051L1692.28 21.3052L1692.28 21.3052L1692.28 21.3071L1692.27 21.3189L1692.27 21.3399L1674.82 86.1367C1674.77 86.3061 1674.7 86.5095 1674.65 86.7196C1671.38 97.7816 1659.97 106.717 1648.82 107H1636.64C1631 107 1626.58 104.76 1623.91 101.215C1621.24 97.666 1620.23 92.6944 1621.63 87.0747L1621.64 87.0343L1621.65 87.0286L1639.19 21.86C1639.19 21.86 1639.19 21.8599 1639.19 21.8599C1642.28 10.354 1654.22 1 1665.73 1H1677.36C1683.04 1 1687.49 3.27994 1690.15 6.88067C1692.82 10.4861 1693.79 15.5312 1692.3 21.2158ZM1621.66 86.832C1621.66 86.8306 1621.66 86.8344 1621.66 86.8421V86.832Z" stroke="#00D1FF" stroke-width="2"/>
<path d="M1746.3 21.2158L1746.29 21.2601L1746.28 21.3035L1746.28 21.3036L1746.28 21.3042L1746.28 21.3047L1746.28 21.3049L1746.28 21.3051L1746.28 21.3052L1746.28 21.3052L1746.28 21.3071L1746.27 21.3189L1746.27 21.3399L1728.82 86.1367C1728.77 86.3061 1728.7 86.5095 1728.65 86.7196C1725.38 97.7816 1713.97 106.717 1702.82 107H1690.64C1685 107 1680.58 104.76 1677.91 101.215C1675.24 97.666 1674.23 92.6944 1675.63 87.0747L1675.64 87.0343L1675.65 87.0286L1693.19 21.86C1693.19 21.86 1693.19 21.8599 1693.19 21.8599C1696.28 10.354 1708.22 1 1719.73 1H1731.36C1737.04 1 1741.49 3.27994 1744.15 6.88067C1746.82 10.4861 1747.79 15.5312 1746.3 21.2158ZM1675.66 86.832C1675.66 86.8306 1675.66 86.8344 1675.66 86.8421V86.832Z" stroke="#1549FF" stroke-width="2"/>
</g>
<defs>
<clipPath id="clip0_286_2311">
<rect width="1748" height="20" fill="white"/>
</clipPath>
</defs>
</svg>
