<svg width="122" height="40" viewBox="0 0 122 40" fill="none" xmlns="http://www.w3.org/2000/svg">
<g clip-path="url(#clip0_7_1604)">
<path d="M115.53 1.60911C115.53 1.60911 115.53 1.61546 115.528 1.61969L114.225 6.47881C114.221 6.49361 114.217 6.5063 114.213 6.5211C113.961 7.3817 113.079 8.07525 112.212 8.0964H111.303C110.419 8.0964 109.891 7.39016 110.11 6.50841C110.11 6.50841 110.11 6.5063 110.11 6.50418L111.419 1.61757C111.658 0.723137 112.578 -0.00213623 113.473 -0.00213623H114.339C115.23 -0.00213623 115.76 0.718908 115.528 1.607L115.53 1.60911Z" fill="#00D1FF"/>
<path d="M121.689 0L119.074 9.73727C118.431 11.9258 116.171 13.6808 113.969 13.6808H108.19L108.926 10.9404C109.106 10.2638 109.804 9.71401 110.48 9.71401H114.974L117.581 0H121.689Z" fill="#1549FF"/>
<path d="M74.2211 10.803L73.555 13.2812C73.3774 13.9388 72.6648 14.4695 71.9586 14.4695H67.5372C66.9366 14.4695 66.0211 15.1081 65.8075 15.8756L65.3402 17.6222H71.1234C71.8 17.6243 72.2208 18.117 72.0939 18.7387C72.0939 18.7429 71.4321 21.1936 71.4321 21.1936C71.2545 21.847 70.544 22.3777 69.8399 22.3777H64.063L62.2467 29.1336C62.0522 29.7975 61.3649 30.3283 60.6989 30.3283H58.2376C57.5567 30.3283 57.155 29.7785 57.3368 29.0976L61.2169 14.6281C61.9845 11.8518 64.7587 9.69073 67.5372 9.69073C67.5372 9.69073 73.3436 9.70765 73.3542 9.70765C73.961 9.76051 74.3311 10.2236 74.2211 10.803Z" fill="#10182C"/>
<path d="M11.156 30.3283H4.81255C3.25205 30.3283 1.84802 29.6643 0.959928 28.5077C0.0506932 27.3215 -0.230535 25.7377 0.192365 24.1624L2.80589 14.404L2.8228 14.3723C3.67495 11.6974 6.30961 9.71191 9.06058 9.71191H15.4041C16.9646 9.71191 18.3686 10.3759 19.2567 11.5325C20.1659 12.7187 20.4472 14.3025 20.0243 15.8778L17.4213 25.613L17.3959 25.6616C16.5459 28.3385 13.9112 30.3262 11.156 30.3262V30.3283ZM4.75757 25.5686C4.77237 25.5686 4.7914 25.5686 4.81255 25.5686H11.156C11.8327 25.5686 12.6848 24.8729 12.8772 24.1666L12.9386 23.9383L15.4273 14.6472C15.4464 14.5731 15.4548 14.5161 15.4591 14.4717C15.4443 14.4717 15.4252 14.4717 15.4041 14.4717H9.06058C8.38394 14.4717 7.53179 15.1673 7.33937 15.8736L7.27383 16.1189L4.78929 25.3952C4.77026 25.4671 4.7618 25.5263 4.75968 25.5707L4.75757 25.5686Z" fill="#10182C"/>
<path d="M83.8759 26.7421L83.2331 29.1209C83.0555 29.7743 82.3429 30.305 81.6387 30.3071H77.2089C75.6505 30.3071 74.2465 29.6453 73.3584 28.4887C72.4491 27.3024 72.1679 25.7187 72.5908 24.1413L76.1347 10.9172C76.3271 10.249 77.0165 9.71191 77.6889 9.71191H80.1544C80.8078 9.71191 81.2053 10.2194 81.0742 10.8601L77.156 25.5495H82.9772C83.6475 25.577 84.0493 26.1014 83.8759 26.7421Z" fill="#10182C"/>
<path d="M58.1529 11.4923C57.2649 10.3484 55.8651 9.70978 54.3151 9.70978H46.6712C45.984 9.73092 45.2968 10.2532 45.1234 10.8918L44.4806 13.2685C44.303 13.9261 44.7301 14.4589 45.4342 14.4611L54.3828 14.4695L53.5391 17.6201H45.8529C43.0047 17.6201 40.2875 19.7431 39.5348 22.5511L39.1034 24.1412C38.6826 25.7187 38.9617 27.3024 39.871 28.4887C40.7591 29.6453 42.1631 30.3092 43.7236 30.3092H50.0671C52.9174 30.3092 55.6325 28.1863 56.3873 25.374L58.9543 15.7869C59.354 14.2264 59.0601 12.6595 58.1529 11.4923ZM51.7904 24.1412C51.6001 24.8538 50.748 25.5516 50.0671 25.5516H43.7236C43.7025 25.5516 43.6855 25.5516 43.6686 25.5516C43.6707 25.5072 43.6792 25.4501 43.6982 25.3803L44.1296 23.7902C44.3199 23.0776 45.172 22.3799 45.8529 22.3799H52.2641L51.7904 24.1434V24.1412Z" fill="#10182C"/>
<path d="M40.9324 10.8241L34.4409 35.0669C33.686 37.8792 30.9689 40 28.1207 40L19.2461 39.9894C18.5695 39.9894 18.1487 39.4947 18.2756 38.873C18.2756 38.8645 18.9459 36.3969 18.9459 36.3969C19.1235 35.7816 19.7769 35.2826 20.4408 35.2424H28.1207C28.8016 35.2424 29.6537 34.5446 29.8461 33.8341L30.7955 30.2881H24.3738C22.8133 30.2902 21.4093 29.6263 20.5212 28.4696C19.6119 27.2834 19.3328 25.6996 19.7536 24.1243L23.289 10.9447C23.473 10.2659 24.1708 9.71614 24.8495 9.71614H27.3151C27.9557 9.71614 28.3512 10.2046 28.2412 10.8305L24.3188 25.5305H30.7469C31.4214 25.5136 32.2524 24.8264 32.4406 24.1243C32.4406 24.1243 36.0099 10.8115 36.012 10.8115C36.2446 10.1919 36.898 9.71191 37.5323 9.71191H40.0042C40.6449 9.71191 41.0403 10.2004 40.9324 10.8241Z" fill="#10182C"/>
<path d="M106.856 10.8241L100.365 35.0669C99.6099 37.8792 96.8927 40 94.0445 40L85.17 39.9894C84.4933 39.9894 84.0725 39.4947 84.1994 38.873C84.1994 38.8645 84.8697 36.3969 84.8697 36.3969C85.0473 35.7816 85.7007 35.2826 86.3646 35.2424H94.0445C94.7254 35.2424 95.5775 34.5446 95.7699 33.8341L96.7194 30.2881H90.2976C88.7371 30.2902 87.3331 29.6263 86.445 28.4696C85.5358 27.2834 85.2566 25.6996 85.6774 24.1243L89.2129 10.9447C89.3968 10.2659 90.0946 9.71614 90.7734 9.71614H93.2389C93.8796 9.71614 94.275 10.2046 94.165 10.8305L90.2426 25.5305H96.6707C97.3452 25.5136 98.1762 24.8264 98.3644 24.1243C98.3644 24.1243 101.934 10.8115 101.936 10.8115C102.168 10.1919 102.822 9.71191 103.456 9.71191H105.928C106.569 9.71191 106.964 10.2004 106.856 10.8241Z" fill="#10182C"/>
</g>
<defs>
<clipPath id="clip0_7_1604">
<rect width="121.689" height="40" fill="white"/>
</clipPath>
</defs>
</svg>
