<svg width="79" height="80" viewBox="0 0 79 80" fill="none" xmlns="http://www.w3.org/2000/svg">
<g clip-path="url(#clip0_2_701)">
<path d="M42.9065 9.41065C42.9065 9.41065 42.9002 9.44852 42.8938 9.46745L35.2757 37.8761C35.2505 37.9582 35.2252 38.0402 35.2063 38.1223C33.7293 43.1527 28.5854 47.211 23.5171 47.3373H18.1964C13.0272 47.3373 9.94079 43.2032 11.2221 38.0592C11.2221 38.0529 11.2221 38.0465 11.2284 38.0339L18.8844 9.46745C20.2856 4.24142 25.6631 0 30.8891 0H35.9637C41.1708 0 44.2698 4.20986 42.9065 9.41065Z" fill="#00D1FF"/>
<path d="M78.9144 0L63.6213 56.9373C59.8722 69.7247 46.6556 79.9937 33.7862 79.9937H0L6.21696 56.8047H39.656L54.9049 0H78.9144Z" fill="#1549FF"/>
</g>
<defs>
<clipPath id="clip0_2_701">
<rect width="78.9144" height="80" fill="white"/>
</clipPath>
</defs>
</svg>
